PathFileType	4	(X/Y/Z)	TYPE-2_1685523821198
DataRate	CameraRate	NumFrames	NumMarkers	Units	OrigDataRate	OrigDataStartFrame	OrigNumFrames
60.00	60.00	       22	13	mm  	60.00	143	       199
Frame#	Time	H			R			B			RF			RK			RB			RA			RD			LF			LK			LB			LA			LD			
		X1	Y1	Z1	X2	Y2	Z2	X3	Y3	Z3	X4	Y4	Z4	X5	Y5	Z5	X6	Y6	Z6	X7	Y7	Z7	X8	Y8	Z8	X9	Y9	Z9	X10	Y10	Z10	X11	Y11	Z11	X12	Y12	Z12	X13	Y13	Z13	
143	2.366667	1945.393026	880.857146	-265.925434	2149.258070	872.682525	-141.804654	0.000000	0.000000	0.000000	2161.436587	564.048866	-25.191180	2214.655040	447.602220	-75.740368	2019.631933	227.888421	-60.558929	1970.751035	146.976353	-116.446645	2052.664076	95.759849	-132.795888	2086.363535	499.652870	-444.599298	2097.874736	410.232523	-383.873540	1999.111966	119.115909	-380.870618	0.000000	0.000000	0.000000	2099.209368	41.540422	-316.975109	
144	2.383333	1967.414455	880.857146	-267.260066	2172.780960	873.349841	-144.640747	0.000000	0.000000	0.000000	2195.970191	568.553249	-26.525812	2250.523276	452.940748	-80.411580	2078.022085	212.373323	-62.727706	2038.650440	125.622241	-118.114935	2126.569325	85.750109	-134.130520	2095.872788	499.819699	-444.265640	2103.713752	409.398378	-383.206224	2000.613427	119.783226	-380.703789	0.000000	0.000000	0.000000	2100.210342	42.875054	-316.808280	
145	2.400000	1989.269054	880.857146	-265.424947	2196.804336	872.849354	-146.642695	0.000000	0.000000	0.000000	2229.002334	572.890803	-28.861418	2283.889077	455.610012	-85.082792	2137.746869	196.190910	-65.897457	2109.052280	104.768615	-119.449567	2200.975061	76.741342	-134.464178	2105.048384	499.152383	-444.265640	2109.219109	408.230575	-382.872566	2002.114888	120.283713	-380.536960	0.000000	0.000000	0.000000	2103.380094	47.045779	-316.307793	
146	2.416667	2012.458286	878.688369	-267.093237	2219.993568	870.513747	-149.311959	0.000000	0.000000	0.000000	2258.864726	572.223487	-33.032143	2314.585614	456.110499	-89.420347	2197.805310	180.675812	-69.067208	2180.955581	85.082792	-121.618345	2275.380798	70.735498	-133.463204	2114.557637	498.318238	-444.599298	2115.224953	407.563259	-382.705737	2003.449520	121.284687	-380.036473	0.000000	0.000000	0.000000	2099.709855	36.869210	-312.303897	
147	2.433333	2036.982150	873.850328	-267.093237	2243.850116	867.844483	-150.980249	0.000000	0.000000	0.000000	2286.725170	570.054710	-37.536526	2343.113374	454.442209	-93.924730	2257.863752	167.329492	-72.236959	2253.359369	66.564773	-124.287609	2349.286047	67.065260	-132.962717	2124.066890	497.650922	-444.766127	2121.230797	406.895943	-382.372079	2004.617323	122.118832	-379.702815	0.000000	0.000000	0.000000	2100.544000	40.372619	-313.138042	
148	2.450000	2060.338210	868.511799	-266.592750	2268.373979	865.008390	-151.647565	0.000000	0.000000	0.000000	2311.749521	566.050814	-42.207738	2369.806014	451.105629	-99.430087	2317.421707	155.818291	-75.740368	2324.094867	57.389178	-130.126624	2422.857638	61.893561	-135.965639	2132.741998	496.816777	-445.266614	2127.236641	406.729114	-382.538908	2005.451468	123.119806	-379.535986	0.000000	0.000000	0.000000	2099.876684	36.702381	-312.303897	
149	2.466667	2083.527442	864.007416	-264.590802	2293.064672	861.004494	-153.482684	0.000000	0.000000	0.000000	2334.271436	560.044969	-46.378463	2394.997194	446.267588	-105.936418	2375.478201	147.143182	-79.577435	2393.495733	53.051624	-133.796862	2493.259478	63.728680	-133.296375	2141.917594	496.483119	-446.434417	2133.742972	406.395456	-382.872566	2006.452442	124.454438	-379.369157	0.000000	0.000000	0.000000	2101.211317	40.539448	-306.798540	
150	2.483333	2107.550819	860.170349	-262.088367	2318.255852	855.832795	-154.650488	0.000000	0.000000	0.000000	2355.291891	551.536690	-50.549188	2419.187400	440.762231	-112.609578	2432.033233	141.637825	-83.414502	2462.062454	52.717966	-132.962717	2559.323764	71.235985	-135.965639	2151.927334	495.982632	-447.935878	2140.416133	405.894969	-383.706711	2007.453416	126.289557	-379.202328	0.000000	0.000000	0.000000	2100.710829	36.702381	-312.637555	
151	2.500000	2132.241511	854.998650	-260.920564	2343.780690	849.660122	-155.484633	0.000000	0.000000	0.000000	2375.645030	542.027437	-54.386256	2443.544435	433.588584	-115.779329	2487.754121	138.301245	-87.084741	2529.461372	52.717966	-127.457360	2622.385128	79.577435	-139.469048	2161.770245	494.814828	-448.603194	2147.923438	405.728140	-384.040369	2008.454390	129.125650	-378.034525	0.000000	0.000000	0.000000	2102.545949	40.372619	-307.132198	
152	2.516667	2157.766349	848.659148	-257.750813	2369.806014	843.153791	-156.318778	0.000000	0.000000	0.000000	2396.999142	531.850868	-56.721862	2467.901469	426.414936	-118.949080	2537.635993	138.301245	-91.255466	2587.017379	54.386256	-137.467100	0.000000	0.000000	0.000000	2172.447302	494.147512	-449.103681	2156.598546	405.561311	-384.207198	2010.456338	132.795888	-376.866722	0.000000	0.000000	0.000000	2102.379120	40.038961	-310.969265	
153	2.533333	2183.791674	844.321594	-250.910823	2395.998168	836.313801	-156.652436	0.000000	0.000000	0.000000	2420.021545	521.340640	-57.055520	2491.758017	421.076408	-122.786148	2584.514944	138.468074	-95.926678	2642.738266	58.056494	-143.639773	0.000000	0.000000	0.000000	2184.458990	493.480196	-449.770997	2166.107799	405.060824	-384.540856	2013.459260	136.966613	-376.032577	0.000000	0.000000	0.000000	2103.213265	40.539448	-312.637555	
154	2.550000	2206.814077	836.313801	-257.750813	2422.523980	829.807470	-157.319752	0.000000	0.000000	0.000000	2445.379554	514.333822	-61.726732	2516.281881	416.238367	-126.623215	2628.224143	138.634903	-101.432035	0.000000	0.000000	0.000000	0.000000	0.000000	0.000000	2197.638481	492.646051	-450.271484	2177.785830	405.060824	-384.207198	2016.962669	141.470996	-375.698919	0.000000	0.000000	0.000000	2103.380094	40.539448	-315.473648	
155	2.566667	2232.505743	831.308931	-253.413258	2449.216621	823.968455	-158.821213	0.000000	0.000000	0.000000	2475.075116	508.995294	-63.728680	2543.475008	411.567155	-129.792966	2666.094327	138.134416	-107.938366	0.000000	0.000000	0.000000	0.000000	0.000000	0.000000	2212.653092	492.145564	-450.771971	2191.632637	405.394482	-384.374027	2021.300223	147.143182	-376.032577	0.000000	0.000000	0.000000	2106.049358	42.875054	-312.470726	
156	2.583333	2258.197410	826.637719	-250.577165	2475.742432	817.462124	-160.489503	0.000000	0.000000	0.000000	2506.105311	506.159201	-64.729654	2573.671058	408.897891	-132.462230	2694.622087	134.797836	-114.444697	0.000000	0.000000	0.000000	0.000000	0.000000	0.000000	2229.836479	491.811906	-451.105629	2207.481393	405.227653	-384.540856	2027.306067	153.649513	-376.866722	0.000000	0.000000	0.000000	2108.051306	43.876028	-316.474622	
157	2.600000	2284.556393	822.800652	-252.412284	2503.102389	814.125544	-161.657306	0.000000	0.000000	0.000000	2538.636967	504.991398	-66.064286	2607.537346	407.730088	-135.965639	2722.148873	131.127598	-119.950055	0.000000	0.000000	0.000000	0.000000	0.000000	0.000000	2248.854986	491.811906	-451.606116	2223.830635	405.060824	-385.875488	2034.980202	160.823161	-378.701841	0.000000	0.000000	0.000000	2111.554715	45.377489	-317.976083	
158	2.616667	2312.583666	818.796756	-249.909849	2530.796004	811.623109	-162.658280	0.000000	0.000000	0.000000	2571.669110	505.491885	-68.399892	2642.571437	407.396430	-138.634903	2746.505907	126.790044	-123.787122	0.000000	0.000000	0.000000	0.000000	0.000000	0.000000	2269.374953	492.145564	-452.773919	2241.848168	405.060824	-388.044265	2044.656284	168.664124	-380.703789	0.000000	0.000000	0.000000	2116.225927	47.379437	-318.643399	
159	2.633333	2341.445084	815.460176	-249.909849	2559.156935	809.621161	-163.992912	0.000000	0.000000	0.000000	2606.369543	505.825543	-68.733550	2675.937238	406.895943	-139.802706	2769.695139	121.618345	-127.123702	0.000000	0.000000	0.000000	0.000000	0.000000	0.000000	2291.563211	493.146538	-453.941722	2262.701793	405.561311	-390.546700	2056.501143	177.839719	-382.872566	0.000000	0.000000	0.000000	2121.230797	49.214556	-320.311689	
160	2.650000	2370.973817	813.625057	-250.076678	0.000000	0.000000	0.000000	0.000000	0.000000	0.000000	2639.068028	506.492859	-69.901353	2709.136210	405.894969	-141.137338	2791.382910	116.112987	-131.127598	0.000000	0.000000	0.000000	0.000000	0.000000	0.000000	2315.753417	494.314341	-454.775867	2286.391512	405.728140	-392.882307	2070.514780	187.682630	-385.708659	0.000000	0.000000	0.000000	2127.570299	50.716017	-322.480466	
161	2.666667	2400.168893	813.458228	-249.743020	0.000000	0.000000	0.000000	0.000000	0.000000	0.000000	2667.595788	506.826517	-71.069156	2738.998602	406.562285	-142.638799	2812.069706	114.611526	-135.298323	0.000000	0.000000	0.000000	0.000000	0.000000	0.000000	2342.446058	494.481170	-455.276354	2313.084153	405.227653	-395.217913	2087.364509	197.025055	-389.712555	0.000000	0.000000	0.000000	2134.577117	51.550163	-325.650218	
162	2.683333	2428.696653	815.793834	-246.072782	0.000000	0.000000	0.000000	0.000000	0.000000	0.000000	2695.623061	507.660662	-72.737446	2770.028797	412.234471	-141.304167	2837.928202	119.783226	-131.628085	0.000000	0.000000	0.000000	0.000000	0.000000	0.000000	2372.308449	492.979709	-456.110499	2343.280203	403.392534	-398.220835	2107.550819	206.200650	-393.382794	0.000000	0.000000	0.000000	2143.252226	51.883821	-323.815098	
163	2.700000	2456.557097	814.459202	-253.413258	0.000000	0.000000	0.000000	0.000000	0.000000	0.000000	2727.987888	514.166993	-73.571591	2798.890215	421.576895	-141.804654	0.000000	0.000000	0.000000	0.000000	0.000000	0.000000	0.000000	0.000000	0.000000	2405.507421	489.476300	-457.945618	2377.646978	400.055954	-402.391560	2131.073708	216.043561	-396.719374	0.000000	0.000000	0.000000	2152.094163	53.718940	-326.984850	
164	2.716667	2484.918028	816.461150	-251.077652	0.000000	0.000000	0.000000	0.000000	0.000000	0.000000	2767.526362	530.015749	-69.234037	2837.594544	424.412988	-140.470022	0.000000	0.000000	0.000000	0.000000	0.000000	0.000000	0.000000	0.000000	0.000000	2442.376631	484.137772	-461.615857	2416.184478	396.552545	-408.564233	2157.099033	226.053302	-400.723270	0.000000	0.000000	0.000000	2165.106825	59.391126	-330.321430	
